{"title":"Big.Mommas.Like.Father.Like.Son.2011.720p.BRRip.x264.Feel-Free","uid":6355849,"size":2461992360,"categoryP":"video","categoryS":"hd___movies","magnet":"?xt=urn:btih:0a27f9b4ce07aca9c8ead7fefb06e06d5f4077e0&amp;dn=Big.Mommas.Like.Father.Like.Son.2011.720p.BRRip.x264.Feel-Free&amp;tr=udp%3A%2F%2Ftracker.openbittorrent.com%3A80&amp;tr=udp%3A%2F%2Fopen.demonii.com%3A1337&amp;tr=udp%3A%2F%2Ftracker.coppersurfer.tk%3A6969&amp;tr=udp%3A%2F%2Fexodus.desync.com%3A6969","seeders":1,"leechers":0,"uploader":"hiest","files":-1,"time":1304148085,"description":"######## ######## ######## ##          ######## ########  ######## ######## \n##       ##       ##       ##          ##       ##     ## ##       ##       \n##       ##       ##       ##          ##       ##     ## ##       ##       \n######   ######   ######   ##          ######   ########  ######   ######   \n##       ##       ##       ##          ##       ##   ##   ##       ##       \n##       ##       ##       ##          ##       ##    ##  ##       ##       \n##       ######## ######## ########    ##       ##     ## ######## ######## \n\n\nGenre:Comedy\n Language:English\n IMDb: &lt;a href=&quot;\nhttp://www.imdb.com/title/tt1464174/&quot; rel=&quot;nofollow&quot; target=&quot;_NEW&quot;&gt;\nhttp://www.imdb.com/title/tt1464174/&lt;/a&gt;\n Source:BluRay.720p.DTS.x264-CHD\n\n\n Format : MPEG-4\n Format profile : Base Media\n Codec ID : isom\n File size : 2.29 GiB\n Duration : 1h 52mn\n Overall bit rate : 2 899 Kbps\n\n\n Video\n Format profile : &lt;a class=&quot;__cf_email__&quot; href=&quot;/cdn-cgi/l/email-protection&quot; data-cfemail=&quot;3d75545a557d7109130c&quot;&gt;[email&amp;#160;protected]&lt;/a&gt;&lt;script cf-hash='f9e31' type=&quot;text/javascript&quot;&gt;\n/* &lt;![CDATA[ */!function(){try{var t=&quot;currentScript&quot;in document?document.currentScript:function(){for(var t=document.getElementsByTagName(&quot;script&quot;),e=t.length;e--;)if(t[e].getAttribute(&quot;cf-hash&quot;))return t[e]}();if(t&amp;&amp;t.previousSibling){var e,r,n,i,c=t.previousSibling,a=c.getAttribute(&quot;data-cfemail&quot;);if(a){for(e=&quot;&quot;,r=parseInt(a.substr(0,2),16),n=2;a.length-n;n+=2)i=parseInt(a.substr(n,2),16)^r,e+=String.fromCharCode(i);e=document.createTextNode(e),c.parentNode.replaceChild(e,c)}}}catch(u){}}();/* ]]&gt; */&lt;/script&gt;\n Format settings, CABAC : Yes\n Format settings, ReFrames : 3 frames\n Codec ID : avc1\n Codec ID/Info : Advanced Video Coding\n Duration : 1h 52mn\n Bit rate mode : Variable\n Bit rate : 2 500 Kbps\n Maximum bit rate : 13.7 Mbps\n Width : 1 280 pixels\n Height : 528 pixels\n Display aspect ratio : 2.40:1\n Frame rate mode : Constant\n Frame rate : 23.976 fps\n Color space : YUV\n Chroma subsampling : 4:2:0\n Bit depth : 8 bits\n Scan type : Progressive\n Bits/(Pixel*Frame) : 0.154\n Stream size : 1.95 GiB (85%)\n Writing library : x264 \n\n\n Audio\n ID : 2\n Format : AAC\n Format/Info : Advanced Audio Codec\n Format version : Version 4\n Format profile : LC\n Format settings, SBR : No\n Codec ID : 40\n Duration : 1h 52mn\n Bit rate mode : Variable\n Bit rate : 428 Kbps\n Maximum bit rate : 543 Kbps\n Channel(s) : 6 channels\n Channel positions : Front: L C R, Side: L R, LFE\n Sampling rate : 48.0 KHz\n Stream size : 346 MiB (15%)\n\n\n\n Plot:\n FBI agent Malcolm Turner and his stepson Trent go undercover at an all-girls performing arts school after Trent witnesses a murder.\n\n\nGreets:\n\n INK,CRYS,IMAGINE,LKRG,FXG,3Li,FLAWL3SS,TA,iLLUSiON,ViSiON,DTRG SAFCuk009,LU,TheFalcon007,MYSTiC,PrisM,Noir,WBZ,LAP,Rx,Kingdom,SAFCuk009+Fabreezy,HDLiTE,TWiZTED,ExtraTorrentRG.ELEKTRI4KA,MAGNAT,CM8\n And to all the other p2p grps past and present\n\n\n\n\n----------------------------------                   &lt;a href=&quot;\nhttp://thepiratebay.se/user/hiest&quot; rel=&quot;nofollow&quot; target=&quot;_NEW&quot;&gt;\nhttp://thepiratebay.se/user/hiest&lt;/a&gt;\n----------------------------------\n\n\n\n\nScreenshots:\n &lt;a href=&quot;\nhttp://www.pix2links.com/images/28874456858725355306.png&quot; rel=&quot;nofollow&quot; target=&quot;_NEW&quot;&gt;\nhttp://www.pix2links.com/images/28874456858725355306.png&lt;/a&gt;\n &lt;a href=&quot;\nhttp://www.pix2links.com/images/11913965954216161976.png&quot; rel=&quot;nofollow&quot; target=&quot;_NEW&quot;&gt;\nhttp://www.pix2links.com/images/11913965954216161976.png&lt;/a&gt;\n &lt;a href=&quot;\nhttp://www.pix2links.com/images/39945229980734172712.png&quot; rel=&quot;nofollow&quot; target=&quot;_NEW&quot;&gt;\nhttp://www.pix2links.com/images/39945229980734172712.png&lt;/a&gt;\n &lt;a href=&quot;\nhttp://www.pix2links.com/images/97086077957724314012.png&quot; rel=&quot;nofollow&quot; target=&quot;_NEW&quot;&gt;\nhttp://www.pix2links.com/images/97086077957724314012.png&lt;/a&gt;\n &lt;a href=&quot;\nhttp://www.pix2links.com/images/23290282728176757783.png&quot; rel=&quot;nofollow&quot; target=&quot;_NEW&quot;&gt;\nhttp://www.pix2links.com/images/23290282728176757783.png&lt;/a&gt;\n\n\n######## ######## ######## ##          ######## ########  ######## ######## \n##       ##       ##       ##          ##       ##     ## ##       ##       \n##       ##       ##       ##          ##       ##     ## ##       ##       \n######   ######   ######   ##          ######   ########  ######   ######   \n##       ##       ##       ##          ##       ##   ##   ##       ##       \n##       ##       ##       ##          ##       ##    ##  ##       ##       \n##       ######## ######## ########    ##       ##     ## ######## ######## \n","torrent":{"xt":"urn:btih:0a27f9b4ce07aca9c8ead7fefb06e06d5f4077e0","amp;dn":"Big.Mommas.Like.Father.Like.Son.2011.720p.BRRip.x264.Feel-Free","amp;tr":["udp%3A%2F%2Ftracker.openbittorrent.com%3A80","udp%3A%2F%2Fopen.demonii.com%3A1337","udp%3A%2F%2Ftracker.coppersurfer.tk%3A6969","udp%3A%2F%2Fexodus.desync.com%3A6969"],"infoHash":"0a27f9b4ce07aca9c8ead7fefb06e06d5f4077e0","infoHashBuffer":{"type":"Buffer","data":[10,39,249,180,206,7,172,169,200,234,215,254,251,6,224,109,95,64,119,224]},"announce":[],"urlList":[]}}